<?xml version="1.0" encoding="iso-8859-1"?>
<!-- Generator: Adobe Illustrator 19.0.0, SVG Export Plug-In . SVG Version: 6.00 Build 0)  -->
<svg version="1.1" id="Capa_1" xmlns="http://www.w3.org/2000/svg" xmlns:xlink="http://www.w3.org/1999/xlink" x="0px" y="0px"
	 viewBox="0 0 512 512" style="enable-background:new 0 0 512 512;" xml:space="preserve">
<path style="fill:#57555C;" d="M75,240.93c-41.353,0-75-33.647-75-75c0-8.291,6.709-15,15-15h102.305
	c10.794,0,18.046,11.12,13.755,20.977c-6.328,14.59-9.946,30.63-10.474,46.421c-0.161,5.215-3.047,9.976-7.603,12.554
	C101.367,237.458,88.242,240.93,75,240.93z"/>
<path style="fill:#3C3A41;" d="M437,240.93c-13.242,0-26.367-3.472-37.983-10.049c-4.556-2.578-7.441-7.339-7.603-12.554
	c-0.527-15.791-4.146-31.831-10.474-46.421c-2.021-4.644-1.553-9.976,1.216-14.209c2.769-4.219,7.485-6.768,12.539-6.768H497
	c8.291,0,15,6.709,15,15C512,207.283,478.353,240.93,437,240.93z"/>
<path style="fill:#BF6015;" d="M150,105.93v-60c0-19.773,30-19.854,30,0v60C180,125.703,150,125.784,150,105.93z"/>
<path style="fill:#994C0F;" d="M332,105.916V45.93c0-19.773,30-19.854,30,0v59.985C362,125.689,332,125.77,332,105.916z"/>
<path style="fill:#8B8892;" d="M421.399,217.229C418.7,132.631,345.3,60.93,255,60.93c-8.401,0-15,6.599-15,15v120
	c0,24.899-20.099,45-45,45h-90c-8.401,0-15,6.599-15,15v68.099c0,11.7,12.599,18.9,22.5,12.902c6.599-3.9,14.7-6,22.5-6h242
	c7.8,0,15.901,2.1,22.5,6c9.901,5.999,22.5-1.501,22.5-12.902V225.93C422,222.929,422,218.73,421.399,217.229z"/>
<path style="fill:#787780;" d="M422,225.93v98.099c0,11.4-12.599,18.9-22.5,12.902c-6.599-3.9-14.7-6-22.5-6H255v-270
	c90.3,0,163.7,71.7,166.399,156.299C422,218.73,422,222.929,422,225.93z"/>
<path style="fill:#E1E4FB;" d="M255,60.93c-96.899,0-162.9,81.299-164.099,153.6C90,218.73,90,222.929,90,225.93v45h105
	c24.6,0,46.199-11.7,60-30c9.3-12.301,15-28.2,15-45c0-120,0-134.401,0-134.401C264.901,61.23,259.799,60.93,255,60.93z"/>
<circle style="fill:#57555C;" cx="195" cy="195.93" r="15"/>
<circle style="fill:#3C3A41;" cx="317" cy="195.93" r="15"/>
<path style="fill:#C5C9F7;" d="M270,195.93c0,16.8-5.7,32.699-15,45v-180c4.799,0,9.901,0.3,15,0.599
	C270,61.529,270,75.93,270,195.93z"/>
<path style="fill:#FEA832;" d="M377,300.93H135c-39.901,0-75,32.1-75,75v30c0,41.4,33.6,75,75,75h242c41.4,0,75-33.6,75-75v-30
	C452,333.329,417.201,300.93,377,300.93z"/>
<path style="fill:#FE9923;" d="M452,375.93v30c0,41.4-33.6,75-75,75H255v-180h122C417.201,300.93,452,333.329,452,375.93z"/>
<path style="fill:#BF6015;" d="M180,405.93v-30c0-19.773,30-19.854,30,0v30C210,425.703,180,425.784,180,405.93z"/>
<path style="fill:#994C0F;" d="M302,405.93v-30c0-19.773,30-19.854,30,0v30C332,425.703,302,425.784,302,405.93z"/>
<g>
</g>
<g>
</g>
<g>
</g>
<g>
</g>
<g>
</g>
<g>
</g>
<g>
</g>
<g>
</g>
<g>
</g>
<g>
</g>
<g>
</g>
<g>
</g>
<g>
</g>
<g>
</g>
<g>
</g>
</svg>
