<?xml version="1.0" encoding="iso-8859-1"?>
<!-- Generator: Adobe Illustrator 19.0.0, SVG Export Plug-In . SVG Version: 6.00 Build 0)  -->
<svg version="1.1" id="Capa_1" xmlns="http://www.w3.org/2000/svg" xmlns:xlink="http://www.w3.org/1999/xlink" x="0px" y="0px"
	 viewBox="0 0 512 512" style="enable-background:new 0 0 512 512;" xml:space="preserve">
<path style="fill:#EE2500;" d="M512,314h-80V194h80V314z"/>
<g>
	<path style="fill:#FF4F19;" d="M46,234c-25.364,0-46-20.636-46-46s20.636-46,46-46v30c-8.822,0-16,7.178-16,16s7.178,16,16,16
		c7.285,0,13.653-4.912,15.485-11.945l29.031,7.565C85.241,219.863,66.936,234,46,234z"/>
	<path style="fill:#FF4F19;" d="M201,463H71V313h130V463z"/>
</g>
<path style="fill:#EE2500;" d="M430,463H300V313h130V463z"/>
<path style="fill:#FFEC97;" d="M258,415c-55.832,0-108.488-16.348-148.271-46.033C68.633,338.301,46,297.116,46,253
	s22.633-85.301,63.729-115.967C149.512,107.348,202.168,91,258,91s108.488,16.348,148.271,46.033
	C447.367,167.699,470,208.884,470,253s-22.633,85.301-63.729,115.967C366.488,398.652,313.832,415,258,415z"/>
<path style="fill:#FFC473;" d="M406.271,137.033C366.488,107.348,313.832,91,258,91v324c55.832,0,108.488-16.348,148.271-46.033
	C447.367,338.301,470,297.116,470,253S447.367,167.699,406.271,137.033z"/>
<path style="fill:#EE2500;" d="M418.242,159H290.729l55-110h86.263L418.242,159z"/>
<circle style="fill:#715539;" cx="369" cy="217" r="15"/>
<polygon style="fill:#FFC473;" points="345.729,49 335.645,69.169 446,143.13 446,49 "/>
<g>
</g>
<g>
</g>
<g>
</g>
<g>
</g>
<g>
</g>
<g>
</g>
<g>
</g>
<g>
</g>
<g>
</g>
<g>
</g>
<g>
</g>
<g>
</g>
<g>
</g>
<g>
</g>
<g>
</g>
</svg>
