<?xml version="1.0" encoding="iso-8859-1"?>
<!-- Generator: Adobe Illustrator 19.0.0, SVG Export Plug-In . SVG Version: 6.00 Build 0)  -->
<svg version="1.1" id="Capa_1" xmlns="http://www.w3.org/2000/svg" xmlns:xlink="http://www.w3.org/1999/xlink" x="0px" y="0px"
	 viewBox="0 0 511.964 511.964" style="enable-background:new 0 0 511.964 511.964;" xml:space="preserve">
<g>
	<g>
		<path style="fill:#AF8066;" d="M147.768,408.194c-6.599,5.38-10.974,8.331-10.974,8.331S65.067,367.928,65.067,308.05
			S97.2,199.576,136.793,199.576h0.789"/>
		<path style="fill:#AF8066;" d="M374.135,199.576h0.792c39.728,0,71.971,48.597,71.971,108.475s-71.971,108.475-71.971,108.475
			s-4.966-3.384-12.379-9.459"/>
	</g>
	<path style="fill:#7F6E5D;" d="M369.576,184.91c16.896,33.242,25.557,70.058,25.253,107.346
		c0,120.19-98.842,196.035-129.736,216.862c-5.581,3.664-12.769,3.799-18.484,0.347c-31.154-19.178-129.475-89.817-129.475-217.209
		c-0.304-37.289,8.356-74.104,25.253-107.346"/>
	<path style="fill:#AF8066;" d="M369.142,100.831c5.507,13.544,8.337,28.027,8.331,42.648
		c-1.306,65.805-55.686,118.104-121.492,116.843c-65.805,1.261-120.186-51.038-121.492-116.843
		c-0.029-14.663,2.832-29.188,8.418-42.745l26.988-35.406c24.134-20.132,54.659-30.994,86.085-30.633
		c31.453-0.361,62.005,10.5,86.172,30.633L369.142,100.831z"/>
	<g>
		<path style="fill:#F3D55B;" d="M176.144,115.747c-4.236,5.327-6.532,11.938-6.508,18.744
			c-0.02,15.755,12.025,28.904,27.721,30.261s29.82-9.529,32.504-25.054c0.067-0.069,0.099-0.165,0.087-0.26"/>
		<path style="fill:#F3D55B;" d="M336.079,115.573c4.341,5.348,6.701,12.03,6.682,18.918c0.004,15.794-12.101,28.954-27.84,30.268
			c-15.739,1.314-29.858-9.658-32.472-25.234"/>
		<path style="fill:#F3D55B;" d="M255.93,182.22h0.103c4.651-0.45,9.26,1.204,12.564,4.51c3.303,3.306,4.955,7.916,4.501,12.567
			l-5.197,26.435c-1.461,5.302-6.424,8.866-11.915,8.556h-0.008c-5.491,0.31-10.454-3.254-11.915-8.556l-5.197-26.434
			c-0.453-4.651,1.198-9.261,4.501-12.567C246.67,183.424,251.279,181.77,255.93,182.22z"/>
	</g>
	<g>
		<path style="fill:#CB8252;" d="M235.016,150.749c-1.212,0.003-2.411-0.253-3.517-0.75L99.448,90.919
			C72.204,79.534,59.292,48.264,70.567,20.974v-0.013L77.66,5.114c1.967-4.362,7.093-6.309,11.46-4.354
			c4.367,1.955,6.329,7.075,4.387,11.447l-3.551,7.92l124.127,55.538c27.243,11.379,40.159,42.643,28.89,69.932
			C241.571,148.736,238.453,150.755,235.016,150.749L235.016,150.749z"/>
		<path style="fill:#CB8252;" d="M276.922,150.758c-3.734,0.001-7.05-2.389-8.229-5.932c-10.842-27.156,2.167-57.983,29.186-69.161
			l124.127-55.538l-3.551-7.92c-1.942-4.373,0.02-9.493,4.387-11.447c4.367-1.955,9.493-0.007,11.46,4.354l7.093,15.843v0.017
			c11.274,27.29-1.638,58.559-28.881,69.944l-132.051,59.081C279.351,150.499,278.144,150.758,276.922,150.758z"/>
	</g>
	<path style="fill:#FDD7AD;" d="M372.526,388.321c-30.98,64.738-85.824,106.218-107.433,120.797
		c-5.581,3.664-12.77,3.799-18.485,0.347c-46.419-28.596-83.788-69.757-107.779-118.715c14.058-55.192,61.18-95.718,117.153-95.718
		C311.406,296.333,359.122,334.526,372.526,388.321L372.526,388.321z"/>
</g>
<g>
</g>
<g>
</g>
<g>
</g>
<g>
</g>
<g>
</g>
<g>
</g>
<g>
</g>
<g>
</g>
<g>
</g>
<g>
</g>
<g>
</g>
<g>
</g>
<g>
</g>
<g>
</g>
<g>
</g>
</svg>
