<?xml version="1.0" encoding="iso-8859-1"?>
<!-- Generator: Adobe Illustrator 19.0.0, SVG Export Plug-In . SVG Version: 6.00 Build 0)  -->
<svg version="1.1" id="Capa_1" xmlns="http://www.w3.org/2000/svg" xmlns:xlink="http://www.w3.org/1999/xlink" x="0px" y="0px"
	 viewBox="0 0 512.125 512.125" style="enable-background:new 0 0 512.125 512.125;" xml:space="preserve">
<g transform="matrix(1.25 0 0 -1.25 0 45)">
	<g>
		<g>
			<path style="fill:#FFAC33;" d="M239.312-23.4c21.4,36.2,53.1,48,61.3,48c11.4,0,11.4,11.4,0,11.4c-35.9,0-100.2-14.2-159.3-64.9
				c15.3,8.2,32.5,13.1,51.8,13.1C209.612-15.9,225.112-18.6,239.312-23.4z"/>
			<path style="fill:#FFAC33;" d="M300.612-362.3c-7.9,0-54.6,16.6-85.9,42c-7.1-1-14.3-1.6-21.5-1.6c-22.9,0-47.7,5.4-71.1,14
				c51.1-31.4,123-65.8,167.2-65.8C323.312-373.7,311.912-362.3,300.612-362.3z"/>
		</g>
		<path style="fill:#FFCC4D;" d="M214.612-320.3c56.2,8.3,107.2,48,124.9,100.1c13.4-38.7,42.1-73.9,60.8-73.9
			c25.1,0-22.8,63.5-22.8,113.8s47.9,113.8,22.8,113.8c-18.3,0-46.2-33.7-59.9-71.4c-13.2,50.2-49,96.8-101.1,114.5
			c-14.2,4.8-29.7,7.5-46.2,7.5c-19.3,0-36.5-4.9-51.8-13.1c-59.4-31.8-91.2-113.1-113.5-151.7c-5-8.7-25.8-11-25.7-19.6v-0.2
			c0.1-3.7,4-8.5,14.5-15.5c-35.3-23.5,5.1-25.5,13.9-35.3c18.5-20.6,53.3-42.7,91.5-56.6c23.5-8.6,48.2-14,71.1-14
			C200.312-321.9,207.512-321.3,214.612-320.3z"/>
	</g>
	<g>
		<path style="fill:#F4900C;" d="M217.912-180.3c0.1,0,0.3,0,0.4,0c6.1,0,11.2,4.8,11.4,11c2.3,68.9,65.5,100.3,72.4,103.5
			c-5.3,6-11.1,11.6-17.2,16.7c-21.4-12-75.6-49.2-77.9-119.4C206.712-174.8,211.612-180.1,217.912-180.3z"/>
		<path style="fill:#F4900C;" d="M315.512-83.2c-21.4-7.9-44.5-25.6-51.5-60.7c-1.2-6.2,2.8-12.2,8.9-13.4c0.8-0.2,1.5-0.2,2.2-0.2
			c5.3,0,10.1,3.7,11.1,9.1c5.9,29.5,26.2,40.7,41,45.1C323.912-96.4,319.912-89.6,315.512-83.2z"/>
		<path style="fill:#F4900C;" d="M267.012-36.4c-7.9,4.8-16.3,8.9-25.3,12.1c-36.1-21.4-91.7-70-91.7-167.4
			c0-6.3,5.1-11.4,11.4-11.4s11.4,5.1,11.4,11.4C172.812-89.4,239.512-48.8,267.012-36.4z"/>
	</g>
	<path style="fill:#292F33;" d="M110.212-123.4c-9.4,0-17.1-7.6-17.1-17.1s7.6-17.1,17.1-17.1c9.4,0,17.1,7.6,17.1,17.1
		S119.612-123.4,110.212-123.4z"/>
</g>
<g>
</g>
<g>
</g>
<g>
</g>
<g>
</g>
<g>
</g>
<g>
</g>
<g>
</g>
<g>
</g>
<g>
</g>
<g>
</g>
<g>
</g>
<g>
</g>
<g>
</g>
<g>
</g>
<g>
</g>
</svg>
