<?xml version="1.0" encoding="iso-8859-1"?>
<!-- Generator: Adobe Illustrator 19.0.0, SVG Export Plug-In . SVG Version: 6.00 Build 0)  -->
<svg version="1.1" id="Capa_1" xmlns="http://www.w3.org/2000/svg" xmlns:xlink="http://www.w3.org/1999/xlink" x="0px" y="0px"
	 viewBox="0 0 500.682 500.682" style="enable-background:new 0 0 500.682 500.682;" xml:space="preserve">
<g transform="matrix(1.25 0 0 -1.25 0 45)">
	<path style="fill:#99AAB5;" d="M26.761-174.912l25.6,37.922l34.133-34.133l45.511,22.756l34.133-34.133l45.511,68.267
		l45.511-34.133l34.133,11.378l22.756-34.133l34.133,34.133l22.756-45.511l-22.756-79.644l-125.156-56.889L97.873-296.279
		l-68.267,68.267L26.761-174.912z"/>
	<g>
		<g>
			<path style="fill:#FFCC4D;" d="M336.305-122.335c0.239,3.277,0.501,6.531,0.501,9.865c0,67.618-49.198,123.608-113.732,134.474
				c13.528,2.947,23.108,5.791,11.332,11.674c-12.686,6.349-25.384-1.468-34.122-9.614h-0.011h-0.011
				c-8.75,8.146-21.424,15.963-34.122,9.614c-11.776-5.882-2.196-8.727,11.332-11.674C112.948,11.138,63.739-44.852,63.739-112.471
				c0-3.334,0.262-6.588,0.501-9.865C58.744-197.44-7.474-307.656,200.273-307.656S341.789-197.44,336.305-122.335"/>
			<path style="fill:#F4900C;" d="M234.406-114.234c0-18.853-15.28-22.756-34.133-22.756s-34.133,3.903-34.133,22.756
				s15.28,34.133,34.133,34.133S234.406-95.381,234.406-114.234"/>
			<g>
				<path style="fill:#662113;" d="M143.384-85.79c0-9.432-7.634-17.067-17.067-17.067S109.25-95.222,109.25-85.79
					s7.634,17.067,17.067,17.067S143.384-76.357,143.384-85.79"/>
				<path style="fill:#662113;" d="M291.295-85.79c0-9.432-7.646-17.067-17.067-17.067c-9.421,0-17.067,7.634-17.067,17.067
					s7.646,17.067,17.067,17.067C283.649-68.723,291.295-76.357,291.295-85.79"/>
			</g>
			<path style="fill:#E1E8ED;" d="M348.184-239.39l-34.133,11.378l-45.511-68.267l-34.133,56.889l-22.756-22.756l-45.511,22.756
				l-34.133-45.511l-34.133,68.267L63.739-239.39l-37.478,88.348c-5.2-15.349-8.033-31.642-8.033-48.526
				c0-91.125,81.51-164.978,182.044-164.978s182.044,73.853,182.044,164.978c0,14.154-2.173,27.807-5.882,40.926L348.184-239.39z"/>
		</g>
	</g>
</g>
<g>
</g>
<g>
</g>
<g>
</g>
<g>
</g>
<g>
</g>
<g>
</g>
<g>
</g>
<g>
</g>
<g>
</g>
<g>
</g>
<g>
</g>
<g>
</g>
<g>
</g>
<g>
</g>
<g>
</g>
</svg>
